<svg width="375" height="118" viewBox="0 0 375 118" fill="none" xmlns="http://www.w3.org/2000/svg">
<g clip-path="url(#clip0_102_1983)">
<path d="M43.7066 33.6697C68.5696 33.6697 87.4139 51.9201 87.4139 75.8344C87.4139 99.7496 68.5696 118 43.7066 118C18.8444 118 0 99.7496 0 75.8344C0 51.9201 18.8444 33.6697 43.7066 33.6697ZM43.7066 98.6481C56.059 98.6481 65.2433 88.8936 65.2433 75.8344C65.2433 62.9331 56.059 53.1786 43.7066 53.1786C31.5129 53.1786 22.1698 62.9331 22.1698 75.8344C22.1698 88.8936 31.5129 98.6481 43.7066 98.6481Z" fill="#1B0A32"/>
<path d="M175.88 116.427H148.854L124.373 85.3118L114.04 96.526V116.427H92.5781V0H114.04V68.0957L143.45 34.9277H170.475L138.998 69.36L175.88 116.427Z" fill="#1B0A32"/>
<path d="M259.182 116.427H232.156L207.675 85.3118L197.342 96.526V116.427H175.88V0H197.342V68.0957L226.752 34.9277H253.777L222.3 69.36L259.182 116.427Z" fill="#1B0A32"/>
<path d="M332.305 83.3866H269.277C272.128 92.9841 280.362 99.7496 291.606 99.7496C300.474 99.7496 307.917 95.5012 311.876 88.4209L329.454 96.2879C322.328 109.032 308.709 118 290.973 118C266.111 118 247.266 99.7496 247.266 75.8344C247.266 51.9201 265.794 33.6697 290.181 33.6697C317.577 33.6697 336.738 56.3255 332.305 83.3866ZM269.594 67.1815H310.926C308.076 58.0559 300.316 51.9201 290.181 51.9201C280.521 51.9201 272.604 58.0559 269.594 67.1815Z" fill="#1B0A32"/>
<path d="M365.034 34.9279L370.017 26.353L362.405 21.9865L357.422 30.5614L352.439 21.9865L344.827 26.353L349.81 34.9279H339.844V43.6604H375V34.9279H365.034Z" fill="#1B0A32"/>
</g>
<defs>
<clipPath id="clip0_102_1983">
<rect width="375" height="118" fill="white"/>
</clipPath>
</defs>
</svg>
